<mxfile host="app.diagrams.net" agent="Mozilla/5.0 (Windows NT 10.0; Win64; x64) AppleWebKit/537.36 (KHTML, like Gecko) Chrome/140.0.0.0 Safari/537.36" version="28.2.7">
  <diagram name="PÃ¡gina-1" id="w7f3Ns6NFeerF4XLKuCH">
    <mxGraphModel dx="1038" dy="618" grid="1" gridSize="10" guides="1" tooltips="1" connect="1" arrows="1" fold="1" page="1" pageScale="1" pageWidth="827" pageHeight="1169" math="0" shadow="0">
      <root>
        <mxCell id="0" />
        <mxCell id="1" parent="0" />
        <mxCell id="fSBeCIPRi_oTGEy7xFah-4" value="" style="rounded=0;whiteSpace=wrap;html=1;fillColor=#f8cecc;strokeColor=#b85450;opacity=90;" vertex="1" parent="1">
          <mxGeometry x="300" y="440" width="210" height="150" as="geometry" />
        </mxCell>
        <mxCell id="fSBeCIPRi_oTGEy7xFah-2" value="" style="rounded=0;whiteSpace=wrap;html=1;fillColor=#d5e8d4;strokeColor=#82b366;opacity=90;" vertex="1" parent="1">
          <mxGeometry x="410" y="460" width="250" height="100" as="geometry" />
        </mxCell>
        <mxCell id="fSBeCIPRi_oTGEy7xFah-13" style="edgeStyle=orthogonalEdgeStyle;rounded=0;orthogonalLoop=1;jettySize=auto;html=1;entryX=0;entryY=0.5;entryDx=0;entryDy=0;" edge="1" parent="1" source="3oB5RR78m1_H89sZPKut-1" target="3oB5RR78m1_H89sZPKut-2">
          <mxGeometry relative="1" as="geometry" />
        </mxCell>
        <mxCell id="3oB5RR78m1_H89sZPKut-1" value="Nextcloud" style="whiteSpace=wrap;html=1;aspect=fixed;fillColor=#dae8fc;strokeColor=#6c8ebf;" parent="1" vertex="1">
          <mxGeometry x="420" y="470" width="80" height="80" as="geometry" />
        </mxCell>
        <mxCell id="3oB5RR78m1_H89sZPKut-2" value="Base de Datos" style="whiteSpace=wrap;html=1;aspect=fixed;fillColor=#dae8fc;strokeColor=#6c8ebf;" parent="1" vertex="1">
          <mxGeometry x="520" y="470" width="80" height="80" as="geometry" />
        </mxCell>
        <mxCell id="fSBeCIPRi_oTGEy7xFah-3" value="Red interna" style="text;html=1;whiteSpace=wrap;strokeColor=none;fillColor=none;align=center;verticalAlign=middle;rounded=0;" vertex="1" parent="1">
          <mxGeometry x="600" y="495" width="60" height="30" as="geometry" />
        </mxCell>
        <mxCell id="fSBeCIPRi_oTGEy7xFah-11" style="edgeStyle=orthogonalEdgeStyle;rounded=0;orthogonalLoop=1;jettySize=auto;html=1;entryX=0;entryY=0.5;entryDx=0;entryDy=0;exitX=0.875;exitY=0.5;exitDx=0;exitDy=0;exitPerimeter=0;" edge="1" parent="1" source="fSBeCIPRi_oTGEy7xFah-8" target="fSBeCIPRi_oTGEy7xFah-10">
          <mxGeometry relative="1" as="geometry" />
        </mxCell>
        <mxCell id="fSBeCIPRi_oTGEy7xFah-8" value="Exterior" style="ellipse;shape=cloud;whiteSpace=wrap;html=1;" vertex="1" parent="1">
          <mxGeometry x="160" y="470" width="120" height="80" as="geometry" />
        </mxCell>
        <mxCell id="fSBeCIPRi_oTGEy7xFah-12" style="edgeStyle=orthogonalEdgeStyle;rounded=0;orthogonalLoop=1;jettySize=auto;html=1;exitX=1;exitY=0.5;exitDx=0;exitDy=0;entryX=0;entryY=0.5;entryDx=0;entryDy=0;" edge="1" parent="1" source="fSBeCIPRi_oTGEy7xFah-10" target="3oB5RR78m1_H89sZPKut-1">
          <mxGeometry relative="1" as="geometry" />
        </mxCell>
        <mxCell id="fSBeCIPRi_oTGEy7xFah-10" value="Proxy Inverso" style="whiteSpace=wrap;html=1;aspect=fixed;fillColor=#dae8fc;strokeColor=#6c8ebf;" vertex="1" parent="1">
          <mxGeometry x="310" y="470" width="80" height="80" as="geometry" />
        </mxCell>
        <mxCell id="fSBeCIPRi_oTGEy7xFah-15" value="Red externa" style="text;html=1;whiteSpace=wrap;strokeColor=none;fillColor=none;align=center;verticalAlign=middle;rounded=0;" vertex="1" parent="1">
          <mxGeometry x="365" y="560" width="80" height="30" as="geometry" />
        </mxCell>
      </root>
    </mxGraphModel>
  </diagram>
</mxfile>
